<svg width="150" height="150" viewBox="0 0 150 150" fill="none" xmlns="http://www.w3.org/2000/svg">
<rect width="150" height="150" rx="16" fill="#2C2B65"/>
<path d="M25.6445 35.8809C25.6445 35.707 25.5996 35.5762 25.5098 35.4883C25.4219 35.3984 25.2607 35.3057 25.0264 35.21C24.5986 35.0479 24.291 34.8584 24.1035 34.6416C23.916 34.4229 23.8223 34.165 23.8223 33.8682C23.8223 33.5088 23.9492 33.2207 24.2031 33.0039C24.459 32.7852 24.7832 32.6758 25.1758 32.6758C25.4375 32.6758 25.6709 32.7314 25.876 32.8428C26.0811 32.9521 26.2383 33.1074 26.3477 33.3086C26.459 33.5098 26.5146 33.7383 26.5146 33.9941H25.6562C25.6562 33.7949 25.6133 33.6436 25.5273 33.54C25.4434 33.4346 25.3213 33.3818 25.1611 33.3818C25.0107 33.3818 24.8936 33.4268 24.8096 33.5166C24.7256 33.6045 24.6836 33.7236 24.6836 33.874C24.6836 33.9912 24.7305 34.0977 24.8242 34.1934C24.918 34.2871 25.084 34.3848 25.3223 34.4863C25.7383 34.6367 26.04 34.8213 26.2275 35.04C26.417 35.2588 26.5117 35.5371 26.5117 35.875C26.5117 36.2461 26.3936 36.5361 26.1572 36.7451C25.9209 36.9541 25.5996 37.0586 25.1934 37.0586C24.918 37.0586 24.667 37.002 24.4404 36.8887C24.2139 36.7754 24.0361 36.6133 23.9072 36.4023C23.7803 36.1914 23.7168 35.9424 23.7168 35.6553H24.5811C24.5811 35.9014 24.6289 36.0801 24.7246 36.1914C24.8203 36.3027 24.9766 36.3584 25.1934 36.3584C25.4941 36.3584 25.6445 36.1992 25.6445 35.8809ZM29.5117 35.5146C29.5117 36.0127 29.4258 36.3945 29.2539 36.6602C29.084 36.9258 28.8301 37.0586 28.4922 37.0586C28.2344 37.0586 28.0273 36.9541 27.8711 36.7451V38.2188H27.042V33.8301H27.8096L27.8389 34.1201C27.9971 33.8877 28.2129 33.7715 28.4863 33.7715C28.8242 33.7715 29.0781 33.8945 29.248 34.1406C29.4199 34.3867 29.5078 34.7637 29.5117 35.2715V35.5146ZM28.6855 35.3066C28.6855 35 28.6514 34.7832 28.583 34.6562C28.5166 34.5293 28.4033 34.4658 28.2432 34.4658C28.0732 34.4658 27.9492 34.5371 27.8711 34.6797V36.165C27.9453 36.3018 28.0713 36.3701 28.249 36.3701C28.4131 36.3701 28.5264 36.3008 28.5889 36.1621C28.6533 36.0234 28.6855 35.8076 28.6855 35.5146V35.3066ZM31.293 37.0586C30.8672 37.0586 30.5352 36.9316 30.2969 36.6777C30.0586 36.4238 29.9395 36.0605 29.9395 35.5879V35.3359C29.9395 34.8359 30.0488 34.4502 30.2676 34.1787C30.4863 33.9072 30.7998 33.7715 31.208 33.7715C31.6064 33.7715 31.9062 33.8994 32.1074 34.1553C32.3086 34.4092 32.4111 34.7861 32.415 35.2861V35.6934H30.7656C30.7773 35.9277 30.8291 36.0996 30.9209 36.209C31.0127 36.3164 31.1543 36.3701 31.3457 36.3701C31.623 36.3701 31.8545 36.2754 32.04 36.0859L32.3652 36.5869C32.2637 36.7275 32.1162 36.8418 31.9229 36.9297C31.7295 37.0156 31.5195 37.0586 31.293 37.0586ZM30.7715 35.1133H31.6006V35.0371C31.5967 34.8477 31.5654 34.7041 31.5068 34.6064C31.4482 34.5088 31.3467 34.46 31.2021 34.46C31.0576 34.46 30.9521 34.5117 30.8857 34.6152C30.8213 34.7188 30.7832 34.8848 30.7715 35.1133ZM34.1641 37.0586C33.7383 37.0586 33.4062 36.9316 33.168 36.6777C32.9297 36.4238 32.8105 36.0605 32.8105 35.5879V35.3359C32.8105 34.8359 32.9199 34.4502 33.1387 34.1787C33.3574 33.9072 33.6709 33.7715 34.0791 33.7715C34.4775 33.7715 34.7773 33.8994 34.9785 34.1553C35.1797 34.4092 35.2822 34.7861 35.2861 35.2861V35.6934H33.6367C33.6484 35.9277 33.7002 36.0996 33.792 36.209C33.8838 36.3164 34.0254 36.3701 34.2168 36.3701C34.4941 36.3701 34.7256 36.2754 34.9111 36.0859L35.2363 36.5869C35.1348 36.7275 34.9873 36.8418 34.7939 36.9297C34.6006 37.0156 34.3906 37.0586 34.1641 37.0586ZM33.6426 35.1133H34.4717V35.0371C34.4678 34.8477 34.4365 34.7041 34.3779 34.6064C34.3193 34.5088 34.2178 34.46 34.0732 34.46C33.9287 34.46 33.8232 34.5117 33.7568 34.6152C33.6924 34.7188 33.6543 34.8848 33.6426 35.1133ZM35.6436 35.3184C35.6436 34.7988 35.7314 34.4111 35.9072 34.1553C36.083 33.8994 36.3389 33.7715 36.6748 33.7715C36.9189 33.7715 37.1221 33.877 37.2842 34.0879V32.5H38.1191V37H37.3662L37.3281 36.6777C37.1582 36.9316 36.9395 37.0586 36.6719 37.0586C36.3398 37.0586 36.0859 36.9316 35.9102 36.6777C35.7363 36.4238 35.6475 36.0508 35.6436 35.5586V35.3184ZM36.4756 35.5264C36.4756 35.8389 36.5088 36.0576 36.5752 36.1826C36.6416 36.3057 36.7539 36.3672 36.9121 36.3672C37.0762 36.3672 37.2002 36.2939 37.2842 36.1475V34.7002C37.2021 34.5439 37.0791 34.4658 36.915 34.4658C36.7627 34.4658 36.6514 34.5273 36.5811 34.6504C36.5107 34.7734 36.4756 34.9922 36.4756 35.3066V35.5264ZM38.8047 36.5781C38.8047 36.4453 38.8486 36.3359 38.9365 36.25C39.0264 36.1641 39.1426 36.1211 39.2852 36.1211C39.4238 36.1211 39.5391 36.1641 39.6309 36.25C39.7227 36.334 39.7686 36.4434 39.7686 36.5781C39.7686 36.7148 39.7217 36.8252 39.6279 36.9092C39.5361 36.9912 39.4219 37.0322 39.2852 37.0322C39.1465 37.0322 39.0312 36.9902 38.9395 36.9062C38.8496 36.8223 38.8047 36.7129 38.8047 36.5781ZM38.8047 34.1816C38.8047 34.0488 38.8486 33.9395 38.9365 33.8535C39.0264 33.7676 39.1426 33.7246 39.2852 33.7246C39.4238 33.7246 39.5391 33.7676 39.6309 33.8535C39.7227 33.9375 39.7686 34.0469 39.7686 34.1816C39.7686 34.3184 39.7217 34.4287 39.6279 34.5127C39.5361 34.5947 39.4219 34.6357 39.2852 34.6357C39.1465 34.6357 39.0312 34.5938 38.9395 34.5098C38.8496 34.4258 38.8047 34.3164 38.8047 34.1816ZM46.5449 35.4443C46.5449 35.749 46.4902 36.0264 46.3809 36.2764C46.2715 36.5244 46.1182 36.7168 45.9209 36.8535C45.7236 36.9902 45.499 37.0586 45.2471 37.0586C45.0205 37.0586 44.8135 36.9873 44.626 36.8447C44.4385 36.7021 44.2744 36.4883 44.1338 36.2031C43.8545 36.7734 43.4844 37.0586 43.0234 37.0586C42.6406 37.0586 42.3291 36.9072 42.0889 36.6045C41.8486 36.2998 41.7285 35.8945 41.7285 35.3887C41.7285 35.0859 41.7822 34.8105 41.8896 34.5625C41.999 34.3125 42.1514 34.1182 42.3467 33.9795C42.5439 33.8408 42.7676 33.7715 43.0176 33.7715C43.2441 33.7715 43.4521 33.8418 43.6416 33.9824C43.833 34.1211 43.9971 34.3271 44.1338 34.6006C44.2666 34.335 44.4287 34.1309 44.6201 33.9883C44.8115 33.8438 45.0225 33.7715 45.2529 33.7715C45.6318 33.7715 45.9414 33.9238 46.1816 34.2285C46.4238 34.5312 46.5449 34.9365 46.5449 35.4443ZM45.7363 35.3887C45.7363 35.123 45.6885 34.9062 45.5928 34.7383C45.4971 34.5684 45.3691 34.4834 45.209 34.4834C45.0645 34.4834 44.9326 34.5654 44.8135 34.7295C44.6943 34.8916 44.6055 35.0996 44.5469 35.3535V35.4355C44.5625 35.543 44.6074 35.6816 44.6816 35.8516C44.7559 36.0195 44.8369 36.1445 44.9248 36.2266C45.0146 36.3086 45.1074 36.3496 45.2031 36.3496C45.3672 36.3496 45.4971 36.2656 45.5928 36.0977C45.6885 35.9277 45.7363 35.6914 45.7363 35.3887ZM42.5342 35.4443C42.5342 35.7139 42.582 35.9326 42.6777 36.1006C42.7734 36.2666 42.9033 36.3496 43.0674 36.3496C43.2705 36.3496 43.4463 36.1777 43.5947 35.834C43.6631 35.6758 43.7051 35.543 43.7207 35.4355V35.3535C43.6602 35.0918 43.5703 34.8818 43.4512 34.7236C43.334 34.5635 43.2041 34.4834 43.0615 34.4834C42.9014 34.4834 42.7734 34.5684 42.6777 34.7383C42.582 34.9062 42.5342 35.1416 42.5342 35.4443Z" fill="#7978B7"/>
<rect x="16.5" y="30" width="117" height="10" rx="4" stroke="#464570" stroke-width="2"/>
<rect x="15.5" y="75" width="119" height="65" rx="6" fill="#191E50"/>
<rect x="20.5" y="81.5" width="14" height="14" rx="2" fill="#373087"/>
<rect x="39.5" y="81.5" width="14" height="14" rx="2" fill="#373087"/>
<rect x="58.5" y="81.5" width="14" height="14" rx="2" fill="#373087"/>
<rect x="77.5" y="81.5" width="14" height="14" rx="2" fill="#373087"/>
<rect x="96.5" y="81.5" width="14" height="14" rx="2" fill="#373087"/>
<rect x="115.5" y="81.5" width="14" height="14" rx="2" fill="#373087"/>
<rect x="20.5" y="100.5" width="23.5" height="14" rx="2" fill="#373087"/>
<rect x="49" y="100.5" width="14" height="14" rx="2" fill="#373087"/>
<rect x="68" y="100.5" width="14" height="14" rx="2" fill="#373087"/>
<rect x="87" y="100.5" width="14" height="14" rx="2" fill="#373087"/>
<rect x="106" y="100.5" width="23.5" height="14" rx="2" fill="#373087"/>
<rect x="20.5" y="119.5" width="14" height="14" rx="2" fill="#373087"/>
<rect x="39.5" y="119.5" width="71" height="14" rx="2" fill="#373087"/>
<rect x="115.5" y="119.5" width="14" height="14" rx="2" fill="#373087"/>
</svg>
